<svg xmlns="http://www.w3.org/2000/svg" width="512" height="512" viewBox="0 0 512 512" version="1.1">
	<path d="M 225.500 15.948 C 219.333 16.385, 211.644 17.630, 208 18.782 C 204.425 19.912, 197 22.040, 191.500 23.511 C 149.920 34.626, 106.381 62.721, 77.610 97 C 67.175 109.433, 53 128.725, 53 130.495 C 53 130.724, 51.587 133.294, 49.860 136.206 C 44.547 145.166, 43.460 147.293, 41.026 153.500 C 39.732 156.800, 38.357 159.950, 37.971 160.500 C 36.703 162.304, 28.198 189.204, 24.375 203.500 L 20.631 217.500 20.631 256 L 20.631 294.500 24.375 308.500 C 28.593 324.272, 35.270 345.241, 38.227 352 C 49.251 377.203, 59.202 393.129, 77.591 415 C 96.476 437.459, 125.727 460.355, 152 473.243 C 170.471 482.303, 174.761 483.843, 206 492.619 L 219.500 496.412 256 496.412 L 292.500 496.412 306 492.619 C 337.239 483.843, 341.529 482.303, 360 473.243 C 386.273 460.355, 415.524 437.459, 434.409 415 C 452.798 393.129, 462.749 377.203, 473.773 352 C 476.730 345.241, 483.407 324.272, 487.625 308.500 L 491.369 294.500 491.369 256 L 491.369 217.500 487.625 203.500 C 483.802 189.204, 475.297 162.304, 474.029 160.500 C 473.643 159.950, 472.268 156.800, 470.974 153.500 C 468.540 147.293, 467.453 145.166, 462.140 136.206 C 460.413 133.294, 459 130.724, 459 130.495 C 459 128.727, 444.834 109.445, 434.393 97 C 405.807 62.928, 362.033 34.675, 320.500 23.491 C 315 22.010, 306.688 19.704, 302.029 18.368 C 294.137 16.103, 291.611 15.911, 265.029 15.553 C 249.338 15.342, 231.550 15.520, 225.500 15.948 M 113.664 125.165 C 112.813 202.259, 112.813 325.334, 113.663 381.336 L 114.326 425 158.337 425 L 202.349 425 200.048 427.449 L 197.747 429.898 200.623 430.587 C 202.206 430.966, 203.950 431.611, 204.500 432.021 C 207.319 434.124, 227.586 437.910, 246.237 439.819 C 264.414 441.679, 300.656 435.786, 318.500 428.069 C 328.804 423.613, 329.713 422.871, 326.418 421.607 C 322.643 420.158, 317.804 421.187, 310.827 424.921 C 298.386 431.579, 290.897 433.309, 276.681 432.806 C 264.064 432.360, 257.313 430.521, 254.128 426.663 C 252.854 425.119, 254.805 425, 281.332 425 L 309.909 425 310.464 421.750 C 312.141 411.921, 319.157 363.635, 320.522 352.526 C 321.398 345.390, 322.251 339.416, 322.417 339.250 C 322.583 339.084, 323.021 341.997, 323.392 345.724 C 324.578 357.667, 331.999 414.313, 333.089 419.750 L 334.142 425 364.321 424.999 L 394.500 424.997 397.822 397.249 C 399.648 381.987, 401.753 365.675, 402.498 361 C 403.244 356.325, 406.166 333.150, 408.993 309.500 C 411.819 285.850, 414.522 265.600, 414.998 264.500 C 416.991 259.900, 415.739 275.320, 411.023 313.458 C 408.306 335.435, 406.248 353.581, 406.449 353.783 C 406.869 354.203, 412.467 344.684, 415.730 338 C 423.428 322.234, 428.190 308.135, 431.421 291.545 C 436.740 264.241, 436.478 243.462, 430.458 215 C 426.896 198.160, 416.750 173.300, 407.352 158.388 C 382.394 118.785, 352.113 94.841, 308.500 80.221 C 293.050 75.042, 271.788 71.561, 256 71.627 C 243.349 71.680, 220.514 75.056, 209.250 78.538 C 207.062 79.214, 207 79.036, 207 72.117 L 207 65 160.664 65 L 114.328 65 113.664 125.165 M 208.367 251 C 208.347 340.375, 208.653 409, 209.047 403.500 C 209.442 398, 209.818 385.495, 209.883 375.711 C 210.178 330.944, 214.295 297, 219.429 297 C 225.165 297, 233.832 333.976, 242.032 393.430 C 243.241 402.192, 244.860 410.967, 245.631 412.930 L 247.032 416.500 246.593 411 C 246.191 405.986, 227.704 262.495, 226.333 253.750 C 225.795 250.321, 225.471 250, 222.547 250 C 217.280 250, 213.903 245.257, 211.293 234.198 C 209.970 228.588, 209.607 216.208, 209.059 158 C 208.562 105.205, 208.396 127.559, 208.367 251 M 108.250 152.963 C 107.013 154.533, 106 156.011, 106 156.249 C 106 156.486, 103.804 160.334, 101.120 164.800 C 96.379 172.689, 88.771 190.315, 84.848 202.500 C 80.306 216.610, 76.626 240.552, 76.626 256 C 76.626 271.448, 80.306 295.390, 84.848 309.500 C 88.771 321.685, 96.379 339.311, 101.120 347.200 C 103.804 351.666, 106 355.520, 106 355.765 C 106 356.011, 107.125 357.548, 108.500 359.182 L 111 362.153 111 256.077 C 111 197.735, 110.888 150.025, 110.750 150.055 C 110.612 150.086, 109.487 151.394, 108.250 152.963 M 346.575 257.263 C 346.819 259.043, 348.828 278.050, 351.039 299.500 C 353.250 320.950, 355.194 339.175, 355.360 340 C 355.721 341.794, 356.456 335.888, 358.536 314.500 C 359.876 300.729, 363.754 269.858, 365.675 257.680 L 366.278 253.860 362.889 255.926 C 358.630 258.523, 354.993 258.547, 350.025 256.013 L 346.130 254.026 346.575 257.263 M 275.496 257.750 C 275.742 259.262, 278.077 279.335, 280.686 302.354 C 283.296 325.374, 285.541 343.824, 285.677 343.354 C 285.931 342.472, 296 256.915, 296 255.634 C 296 255.239, 294.048 256.060, 291.662 257.458 C 286.240 260.636, 284.226 260.643, 279.595 257.500 C 277.569 256.125, 275.717 255, 275.481 255 C 275.244 255, 275.251 256.238, 275.496 257.750" stroke="none" fill="black" fill-rule="evenodd"/>
</svg>